<svg width="210" height="62" viewBox="0 0 210 62" fill="none" xmlns="http://www.w3.org/2000/svg">
<g clip-path="url(#clip0_3275_2156)">
<mask id="mask0_3275_2156" style="mask-type:luminance" maskUnits="userSpaceOnUse" x="0" y="0" width="210" height="62">
<path d="M0 -3.8147e-06H210V62H0V-3.8147e-06Z" fill="white"/>
</mask>
<g mask="url(#mask0_3275_2156)">
<path d="M202.222 61.9995H7.77787C3.50004 61.9995 0 58.5122 0 54.2494V7.74943C0 3.48668 3.50004 -0.000614166 7.77787 -0.000614166H202.222C206.5 -0.000614166 210 3.48668 210 7.74943V54.2494C210 58.5122 206.5 61.9995 202.222 61.9995Z" fill="#100F0D"/>
<path d="M202.222 -3.8147e-06H7.77787C3.50004 -3.8147e-06 0 3.48761 0 7.75004V54.25C0 58.5127 3.50004 62 7.77787 62H202.222C206.5 62 210 58.5127 210 54.25V7.75004C210 3.48761 206.5 -3.8147e-06 202.222 -3.8147e-06ZM202.222 1.23995C205.825 1.23995 208.756 4.16006 208.756 7.75004V54.25C208.756 57.8399 205.825 60.7601 202.222 60.7601H7.77787C4.1751 60.7601 1.24444 57.8399 1.24444 54.25V7.75004C1.24444 4.16006 4.1751 1.23995 7.77787 1.23995H202.222Z" fill="#A2A2A1"/>
<path d="M166.345 46.5H169.248V27.1236H166.345V46.5ZM192.489 34.103L189.162 42.5041H189.062L185.609 34.103H182.482L187.661 45.8444L184.708 52.3761H187.735L195.717 34.103H192.489ZM176.028 44.2989C175.076 44.2989 173.751 43.8247 173.751 42.6532C173.751 41.1572 175.401 40.5852 176.828 40.5852C178.103 40.5852 178.704 40.8596 179.48 41.233C179.255 43.0282 177.704 44.2989 176.028 44.2989ZM176.378 33.68C174.277 33.68 172.099 34.6022 171.198 36.6451L173.776 37.7179C174.327 36.6451 175.352 36.2962 176.428 36.2962C177.929 36.2962 179.455 37.1938 179.48 38.7888V38.9886C178.954 38.6897 177.828 38.2417 176.453 38.2417C173.676 38.2417 170.848 39.7622 170.848 42.6032C170.848 45.1965 173.125 46.866 175.677 46.866C177.629 46.866 178.704 45.9947 179.381 44.9717H179.48V46.4676H182.282V39.0382C182.282 35.5988 179.706 33.68 176.378 33.68ZM158.439 36.4621H154.311V29.8189H158.439C160.61 29.8189 161.841 31.6108 161.841 33.1406C161.841 34.6426 160.61 36.4621 158.439 36.4621ZM158.365 27.1236H151.41V46.5H154.311V39.1593H158.365C161.582 39.1593 164.744 36.8372 164.744 33.1406C164.744 29.4438 161.582 27.1236 158.365 27.1236ZM120.439 44.3022C118.434 44.3022 116.755 42.6298 116.755 40.3326C116.755 38.0107 118.434 36.3118 120.439 36.3118C122.419 36.3118 123.972 38.0107 123.972 40.3326C123.972 42.6298 122.419 44.3022 120.439 44.3022ZM123.771 35.1881H123.671C123.02 34.4146 121.767 33.714 120.189 33.714C116.88 33.714 113.848 36.6111 113.848 40.3326C113.848 44.0278 116.88 46.9 120.189 46.9C121.767 46.9 123.02 46.2009 123.671 45.4013H123.771V46.3496C123.771 48.873 122.419 50.2202 120.238 50.2202C118.459 50.2202 117.356 48.9474 116.905 47.8733L114.374 48.9229C115.1 50.671 117.031 52.818 120.238 52.818C123.646 52.818 126.529 50.8201 126.529 45.9512V34.114H123.771V35.1881ZM128.532 46.5H131.44V27.1219H128.532V46.5ZM135.725 40.1078C135.651 37.5595 137.706 36.2622 139.184 36.2622C140.338 36.2622 141.314 36.8359 141.639 37.6603L135.725 40.1078ZM144.748 37.91C144.195 36.4358 142.517 33.714 139.084 33.714C135.676 33.714 132.845 36.3863 132.845 40.3079C132.845 44.0029 135.651 46.9 139.409 46.9C142.442 46.9 144.195 45.0523 144.923 43.9783L142.668 42.4794C141.915 43.5782 140.888 44.3022 139.409 44.3022C137.931 44.3022 136.878 43.6278 136.201 42.3058L145.048 38.6586L144.748 37.91ZM74.2685 35.7385V38.5345H80.9839C80.783 40.1078 80.2574 41.2564 79.4564 42.0545C78.4779 43.0295 76.9488 44.1023 74.2685 44.1023C70.1322 44.1023 66.9 40.7822 66.9 36.6606C66.9 32.5407 70.1322 29.2206 74.2685 29.2206C76.4992 29.2206 78.1278 30.0932 79.3303 31.2169L81.3103 29.2455C79.6306 27.6473 77.4013 26.4229 74.2685 26.4229C68.6047 26.4229 63.8433 31.0187 63.8433 36.6606C63.8433 42.3058 68.6047 46.9 74.2685 46.9C77.3252 46.9 79.6306 45.9001 81.4348 44.0278C83.2891 42.1802 83.8664 39.5841 83.8664 37.4853C83.8664 36.8359 83.8163 36.2376 83.7152 35.7385H74.2685ZM91.5008 44.3022C89.4974 44.3022 87.7677 42.6544 87.7677 40.3079C87.7677 37.9346 89.4974 36.3118 91.5008 36.3118C93.5059 36.3118 95.2357 37.9346 95.2357 40.3079C95.2357 42.6544 93.5059 44.3022 91.5008 44.3022ZM91.5008 33.714C87.8421 33.714 84.8602 36.487 84.8602 40.3079C84.8602 44.1023 87.8421 46.9 91.5008 46.9C95.1596 46.9 98.1432 44.1023 98.1432 40.3079C98.1432 36.487 95.1596 33.714 91.5008 33.714ZM105.989 44.3022C103.984 44.3022 102.254 42.6544 102.254 40.3079C102.254 37.9346 103.984 36.3118 105.989 36.3118C107.995 36.3118 109.723 37.9346 109.723 40.3079C109.723 42.6544 107.995 44.3022 105.989 44.3022ZM105.989 33.714C102.331 33.714 99.3485 36.487 99.3485 40.3079C99.3485 44.1023 102.331 46.9 105.989 46.9C109.648 46.9 112.63 44.1023 112.63 40.3079C112.63 36.487 109.648 33.714 105.989 33.714Z" fill="white"/>
<path d="M32.2267 30.1071L15.6648 47.6224C15.6663 47.6253 15.6663 47.6301 15.668 47.633C16.1765 49.535 17.9188 50.9347 19.9877 50.9347C20.8152 50.9347 21.5915 50.7115 22.2573 50.3209L22.3101 50.2898L40.952 39.5716L32.2267 30.1071Z" fill="#EB3131"/>
<path d="M48.9816 27.1248L48.966 27.1138L40.9174 22.4653L31.8501 30.5052L40.9499 39.5697L48.9549 34.9678C50.358 34.2112 51.3117 32.7373 51.3117 31.0384C51.3117 29.3488 50.3719 27.8828 48.9816 27.1248Z" fill="#F6B60B"/>
<path d="M15.6643 14.3793C15.5648 14.745 15.512 15.1295 15.512 15.5263V46.4769C15.512 46.8737 15.5648 47.258 15.666 47.6224L32.7957 30.5551L15.6643 14.3793Z" fill="#5778C5"/>
<path d="M32.3489 31.0015L40.92 22.4624L22.3001 11.7054C21.6234 11.3008 20.8332 11.0682 19.9885 11.0682C17.9197 11.0682 16.1743 12.4711 15.6656 14.3745C15.6656 14.3761 15.6641 14.3777 15.6641 14.3793L32.3489 31.0015Z" fill="#3BAD49"/>
</g>
<mask id="mask1_3275_2156" style="mask-type:luminance" maskUnits="userSpaceOnUse" x="0" y="-1" width="210" height="63">
<path d="M0 -0.000328064H210V62H0V-0.000328064Z" fill="white"/>
</mask>
<g mask="url(#mask1_3275_2156)">
<path d="M68.0559 18.954C69.1569 18.954 70.0116 18.6508 70.6204 18.0442C71.2293 17.4371 71.5339 16.5992 71.5339 15.5293C71.5339 14.4594 71.2293 13.6207 70.6204 13.014C70.0116 12.4073 69.1569 12.1038 68.0559 12.1038H66.4861V18.954H68.0559ZM64.9976 10.7013H68.0965C69.0981 10.7013 69.9709 10.9037 70.715 11.3083C71.4595 11.7129 72.0322 12.2813 72.434 13.014C72.8355 13.7471 73.0361 14.585 73.0361 15.5293C73.0361 16.4732 72.8355 17.3115 72.434 18.0442C72.0322 18.7769 71.4595 19.3453 70.715 19.7499C69.9709 20.1545 69.0981 20.3566 68.0965 20.3566H64.9976V10.7013Z" fill="white"/>
<path d="M74.9712 10.7013H76.4597V20.3566H74.9712V10.7013Z" fill="white"/>
<path d="M79.5726 19.8714C78.9319 19.404 78.4853 18.7477 78.2327 17.9026L79.6402 17.3361C79.7846 17.8754 80.0417 18.3162 80.4117 18.6577C80.7813 18.9994 81.2279 19.1701 81.7516 19.1701C82.2386 19.1701 82.6514 19.0444 82.9895 18.7924C83.3279 18.5407 83.4973 18.1948 83.4973 17.7542C83.4973 17.3497 83.3484 17.0147 83.0506 16.7495C82.7529 16.4842 82.2386 16.2257 81.5078 15.974L80.899 15.7583C80.24 15.5247 79.6923 15.1985 79.2544 14.7807C78.8168 14.3625 78.5981 13.8076 78.5981 13.1151C78.5981 12.6389 78.7268 12.1981 78.9839 11.7938C79.2411 11.3893 79.6016 11.0702 80.0664 10.8363C80.5313 10.6025 81.0566 10.4855 81.6434 10.4855C82.4824 10.4855 83.1543 10.6903 83.6598 11.099C84.1647 11.5085 84.5076 11.9691 84.6884 12.4815L83.3484 13.0481C83.258 12.7241 83.0685 12.4456 82.7802 12.2117C82.4912 11.9782 82.117 11.8612 81.6567 11.8612C81.2146 11.8612 80.8401 11.9782 80.5336 12.2117C80.2267 12.4456 80.0736 12.7423 80.0736 13.1018C80.0736 13.4345 80.2108 13.7108 80.4861 13.9311C80.7611 14.1516 81.1873 14.3602 81.765 14.5582L82.3875 14.7739C83.2174 15.0618 83.8578 15.4347 84.3093 15.893C84.7605 16.3517 84.9858 16.9632 84.9858 17.727C84.9858 18.3564 84.8259 18.8847 84.5054 19.3116C84.1852 19.7389 83.7746 20.0554 83.274 20.2623C82.773 20.469 82.261 20.5723 81.738 20.5723C80.9347 20.5723 80.213 20.3388 79.5726 19.8714Z" fill="white"/>
<path d="M90.3046 15.2053C90.801 15.2053 91.1998 15.0505 91.5025 14.7402C91.8045 14.4299 91.9556 14.0684 91.9556 13.6547C91.9556 13.2411 91.8045 12.8793 91.5025 12.569C91.1998 12.259 90.801 12.1038 90.3046 12.1038H88.4233V15.2053H90.3046ZM86.9348 10.7013H90.2639C90.8416 10.7013 91.3711 10.8273 91.8542 11.079C92.3366 11.331 92.7202 11.6814 93.0047 12.1307C93.2888 12.5806 93.4308 13.0885 93.4308 13.6547C93.4308 14.221 93.2888 14.7289 93.0047 15.1785C92.7202 15.6281 92.3366 15.9789 91.8542 16.2302C91.3711 16.4819 90.8416 16.6079 90.2639 16.6079H88.4233V20.3566H86.9348V10.7013Z" fill="white"/>
<path d="M101.49 18.7049C102.027 18.3946 102.45 17.9632 102.762 17.4102C103.073 16.8573 103.229 16.2302 103.229 15.5293C103.229 14.8277 103.073 14.2009 102.762 13.648C102.45 13.095 102.027 12.6636 101.49 12.3533C100.953 12.0433 100.36 11.8881 99.71 11.8881C99.0605 11.8881 98.4673 12.0433 97.9302 12.3533C97.3935 12.6636 96.9696 13.095 96.6582 13.648C96.3471 14.2009 96.1914 14.8277 96.1914 15.5293C96.1914 16.2302 96.3471 16.8573 96.6582 17.4102C96.9696 17.9632 97.3935 18.3946 97.9302 18.7049C98.4673 19.0149 99.0605 19.1701 99.71 19.1701C100.36 19.1701 100.953 19.0149 101.49 18.7049ZM97.1523 19.8983C96.3851 19.4487 95.7831 18.8397 95.3455 18.071C94.9077 17.3021 94.6892 16.455 94.6892 15.5293C94.6892 14.6032 94.9077 13.7558 95.3455 12.9872C95.7831 12.2185 96.3851 11.6095 97.1523 11.1599C97.9189 10.7103 98.7715 10.4855 99.71 10.4855C100.649 10.4855 101.499 10.7103 102.261 11.1599C103.023 11.6095 103.623 12.2185 104.061 12.9872C104.498 13.7558 104.717 14.6032 104.717 15.5293C104.717 16.455 104.498 17.3021 104.061 18.071C103.623 18.8397 103.023 19.4487 102.261 19.8983C101.499 20.3479 100.649 20.5723 99.71 20.5723C98.7715 20.5723 97.9189 20.3479 97.1523 19.8983Z" fill="white"/>
<path d="M106.639 10.7013H108.398L112.783 17.7947H112.864L112.783 15.9335V10.7013H114.258V20.3566H112.715L108.114 12.8994H108.033L108.114 14.7606V20.3566H106.639V10.7013Z" fill="white"/>
<path d="M116.708 10.7013H118.196V20.3566H116.708V10.7013Z" fill="white"/>
<path d="M124.422 18.9812C124.891 18.9812 125.268 18.8397 125.552 18.5566C125.836 18.2732 125.978 17.934 125.978 17.5385C125.978 17.1427 125.831 16.8013 125.538 16.5136C125.245 16.2257 124.855 16.0819 124.367 16.0819H122.121V18.9812H124.422ZM124.192 14.7606C124.643 14.7606 125.004 14.6236 125.274 14.3489C125.545 14.0749 125.68 13.7581 125.68 13.3985C125.68 13.039 125.547 12.7264 125.281 12.4611C125.015 12.1961 124.67 12.0633 124.246 12.0633H122.121V14.7606H124.192ZM120.632 10.7013H124.259C124.773 10.7013 125.252 10.814 125.694 11.0385C126.136 11.2633 126.486 11.5713 126.743 11.9623C127 12.3532 127.129 12.7873 127.129 13.2638C127.129 13.7403 127.009 14.1558 126.77 14.5109C126.531 14.8662 126.213 15.138 125.815 15.3268V15.3942C126.321 15.5652 126.723 15.8483 127.02 16.2438C127.318 16.6393 127.467 17.1067 127.467 17.6464C127.467 18.1766 127.329 18.6463 127.054 19.0554C126.779 19.4645 126.409 19.7836 125.944 20.0129C125.479 20.2419 124.972 20.3566 124.422 20.3566H120.632V10.7013Z" fill="white"/>
<path d="M129.429 10.7013H130.917V20.3566H129.429V10.7013Z" fill="white"/>
<path d="M133.367 10.7013H134.856V18.954H139.024V20.3566H133.367V10.7013Z" fill="white"/>
<path d="M140.594 10.7013H146.468V12.1038H142.083V14.8277H146.034V16.2302H142.083V18.954H146.468V20.3566H140.594V10.7013Z" fill="white"/>
<path d="M152.137 19.8714C151.497 19.404 151.05 18.7477 150.798 17.9026L152.205 17.3361C152.35 17.8754 152.607 18.3162 152.976 18.6577C153.346 18.9994 153.793 19.1701 154.316 19.1701C154.803 19.1701 155.216 19.0444 155.554 18.7924C155.893 18.5407 156.062 18.1948 156.062 17.7542C156.062 17.3497 155.913 17.0147 155.615 16.7495C155.317 16.4842 154.803 16.2257 154.072 15.974L153.464 15.7583C152.805 15.5247 152.257 15.1985 151.819 14.7807C151.382 14.3625 151.163 13.8076 151.163 13.1151C151.163 12.6389 151.292 12.1981 151.549 11.7938C151.806 11.3893 152.167 11.0702 152.631 10.8363C153.096 10.6025 153.622 10.4855 154.208 10.4855C155.047 10.4855 155.719 10.6903 156.224 11.099C156.73 11.5085 157.073 11.9691 157.253 12.4815L155.913 13.0481C155.823 12.7241 155.633 12.4456 155.345 12.2117C155.056 11.9782 154.682 11.8612 154.221 11.8612C153.78 11.8612 153.405 11.9782 153.098 12.2117C152.792 12.4456 152.638 12.7423 152.638 13.1018C152.638 13.4345 152.776 13.7108 153.051 13.9311C153.326 14.1516 153.752 14.3602 154.33 14.5582L154.952 14.7739C155.782 15.0618 156.423 15.4347 156.874 15.893C157.325 16.3517 157.551 16.9632 157.551 17.727C157.551 18.3564 157.391 18.8847 157.07 19.3116C156.75 19.7389 156.34 20.0554 155.839 20.2623C155.338 20.469 154.826 20.5723 154.303 20.5723C153.5 20.5723 152.778 20.3388 152.137 19.8714Z" fill="white"/>
<path d="M161.009 20.0871C160.454 19.7635 160.025 19.3048 159.723 18.7114C159.42 18.1183 159.27 17.4303 159.27 16.6484V10.7013H160.745V16.7294C160.745 17.4575 160.934 18.0461 161.313 18.4957C161.692 18.9456 162.229 19.1701 162.924 19.1701C163.627 19.1701 164.169 18.9456 164.547 18.4957C164.926 18.0461 165.116 17.4575 165.116 16.7294V10.7013H166.591V16.6484C166.591 17.4216 166.442 18.1047 166.145 18.6981C165.847 19.2912 165.423 19.7522 164.872 20.0803C164.322 20.4084 163.672 20.5723 162.924 20.5723C162.202 20.5723 161.563 20.4107 161.009 20.0871Z" fill="white"/>
</g>
</g>
<defs>
<clipPath id="clip0_3275_2156">
<rect width="210" height="62" fill="white"/>
</clipPath>
</defs>
</svg>
